
<svg id="svg" xmlns="http://www.w3.org/2000/svg" xmlns:xlink="http://www.w3.org/1999/xlink" width="400" height="133.33333333333334" viewBox="0, 0, 400,133.33333333333334"><g id="svgg"><path id="path0" d="66.667 L 0.000 133.333 200.000 133.333 L 400.000 133.333 400.000 66.667 L 400.000 0.000 200.000 0.000 L 0.000 0.000 0.000 66.667 M123.250 27.226 C 125.825 27.912,127.128 29.679,126.970 32.271 C 126.588 38.557,116.667 38.231,116.667 31.932 C 116.667 28.488,119.740 26.291,123.250 27.226 M116.492 36.413 C 121.130 38.763,119.130 45.667,113.812 45.667 C 109.366 45.667,106.949 40.384,110.000 37.333 C 111.494 35.839,114.515 35.411,116.492 36.413 M131.923 36.263 C 135.559 37.782,135.693 43.436,132.132 45.062 C 127.413 47.216,122.715 43.022,124.846 38.558 C 125.954 36.235,129.277 35.158,131.923 36.263 M110.917 45.893 C 113.936 46.697,115.408 49.506,114.326 52.398 C 112.821 56.420,106.502 56.526,104.638 52.559 C 102.841 48.736,106.602 44.743,110.917 45.893 M135.417 45.893 C 138.444 46.699,139.854 49.331,138.878 52.356 C 137.657 56.144,131.364 56.570,129.377 53.000 C 127.166 49.026,130.860 44.678,135.417 45.893 M230.334 64.292 C 230.335 73.985,230.383 82.535,230.442 83.292 L 230.549 84.667 229.775 84.667 L 229.000 84.667 229.000 82.343 C 229.000 79.631,228.911 79.492,228.016 80.809 C 224.376 86.170,216.705 86.863,212.083 82.250 C 207.030 77.207,207.105 66.648,212.229 61.570 C 214.860 58.962,218.448 57.840,221.833 58.566 C 224.566 59.151,227.057 60.718,228.122 62.521 C 228.278 62.784,228.464 63.000,228.536 63.000 C 228.608 63.000,228.667 59.325,228.667 54.833 L 228.667 46.667 229.500 46.667 L 230.333 46.667 230.334 64.292 M170.181 48.237 C 175.715 49.071,178.333 51.853,178.333 56.897 C 178.333 60.220,176.534 63.149,173.634 64.546 C 172.282 65.198,172.243 65.378,173.375 65.746 C 178.146 67.295,180.820 71.933,179.767 76.833 C 178.410 83.155,172.469 85.891,162.458 84.806 L 160.665 84.612 160.708 66.683 L 160.750 48.754 161.583 48.620 C 165.699 47.956,167.724 47.866,170.181 48.237 M164.333 49.567 C 163.462 49.671,162.656 49.816,162.542 49.888 C 162.380 49.990,162.333 51.666,162.333 57.343 L 162.333 64.667 165.875 64.661 C 169.771 64.654,170.631 64.527,172.421 63.689 C 175.863 62.078,177.524 57.976,176.252 54.228 C 175.020 50.595,170.500 48.827,164.333 49.567 M107.948 56.032 C 111.457 57.682,111.585 63.149,108.152 64.719 C 106.879 65.301,104.735 65.543,104.039 65.184 C 103.880 65.102,103.426 64.900,103.030 64.737 C 99.510 63.281,99.355 57.810,102.787 56.149 C 104.335 55.399,106.498 55.351,107.948 56.032 M139.250 56.070 C 143.114 57.902,142.835 63.537,138.807 65.010 C 134.266 66.669,129.911 62.220,132.100 58.157 C 133.280 55.967,136.841 54.928,139.250 56.070 M195.726 58.572 C 198.996 59.257,200.859 61.260,201.703 65.000 C 201.796 65.412,201.933 69.688,202.007 74.500 C 202.081 79.313,202.192 83.569,202.255 83.958 L 202.368 84.667 201.620 84.667 C 200.774 84.667,200.674 84.510,200.667 83.167 C 200.661 81.985,200.481 81.167,200.228 81.167 C 200.103 81.167,200.000 81.227,200.000 81.300 C 200.000 81.837,197.219 84.022,195.833 84.574 C 188.518 87.487,182.329 81.569,185.526 74.718 C 187.144 71.252,192.460 69.000,199.027 69.000 L 200.333 69.000 200.333 67.792 C 200.332 60.382,194.247 57.408,187.513 61.526 C 187.082 61.790,186.667 61.396,186.667 60.723 C 186.667 59.850,190.869 58.391,193.500 58.350 C 194.096 58.341,195.098 58.441,195.726 58.572 M250.667 58.564 C 255.448 59.581,258.757 64.678,258.309 70.333 L 258.250 71.083 248.625 71.126 L 239.000 71.169 239.003 72.210 C 239.019 77.658,241.576 81.905,245.750 83.418 C 248.359 84.364,253.176 83.981,255.630 82.634 C 255.931 82.468,256.216 82.333,256.264 82.333 C 256.340 82.333,256.833 83.389,256.833 83.552 C 256.833 83.715,255.140 84.438,254.167 84.689 C 242.591 87.681,235.167 79.790,237.916 67.417 C 238.061 66.765,238.299 66.083,238.686 65.210 C 238.859 64.822,239.000 64.463,239.000 64.413 C 239.000 64.084,240.691 61.860,241.553 61.055 C 243.905 58.858,247.470 57.884,250.667 58.564 M276.946 58.567 C 279.206 59.169,281.064 60.698,282.021 62.744 C 282.590 63.959,282.784 64.163,282.947 63.719 C 285.150 57.708,294.591 56.535,298.111 61.833 C 299.798 64.373,299.993 65.869,299.997 76.292 L 300.000 84.667 299.167 84.667 L 298.333 84.667 298.333 76.175 C 298.333 66.559,298.273 65.930,297.114 63.500 C 294.229 57.449,285.712 59.087,283.584 66.102 C 283.379 66.778,283.337 68.431,283.335 75.792 L 283.333 84.667 282.500 84.667 L 281.667 84.667 281.667 75.760 C 281.667 65.386,281.587 64.705,280.106 62.500 C 277.168 58.125,270.798 59.200,268.125 64.521 C 266.997 66.767,267.000 66.731,267.000 76.175 L 267.000 84.667 266.167 84.667 L 265.333 84.667 265.301 72.417 C 265.283 65.679,265.264 59.923,265.259 59.625 C 265.250 59.107,265.280 59.081,265.943 59.033 L 266.637 58.982 266.738 60.199 C 266.793 60.869,266.856 61.823,266.878 62.320 C 266.922 63.340,267.152 63.558,267.458 62.869 C 268.812 59.809,273.547 57.662,276.946 58.567 M218.000 59.917 C 214.583 60.687,212.305 62.856,210.821 66.750 C 209.607 69.937,209.787 74.916,211.230 78.059 C 215.189 86.684,226.001 85.620,228.434 76.367 C 228.752 75.158,228.750 68.139,228.431 66.833 C 227.203 61.804,222.743 58.847,218.000 59.917 M246.313 59.909 C 242.748 60.892,239.712 64.831,239.307 69.000 L 239.250 69.583 247.898 69.627 L 256.546 69.670 256.430 68.390 C 255.867 62.171,251.472 58.487,246.313 59.909 M105.702 65.900 C 109.308 67.451,109.410 73.291,105.856 74.696 C 100.219 76.925,95.295 70.804,99.561 66.872 C 101.024 65.523,103.805 65.083,105.702 65.900 M141.787 65.976 C 145.268 67.754,145.273 72.997,141.795 74.627 C 136.500 77.109,131.551 71.367,135.255 67.039 C 136.539 65.539,139.870 64.997,141.787 65.976 M162.410 66.208 C 162.366 66.323,162.349 70.204,162.373 74.832 L 162.417 83.247 163.500 83.449 C 165.579 83.837,169.416 83.640,171.667 83.030 C 180.463 80.647,180.633 69.577,171.917 66.744 C 169.830 66.066,162.620 65.660,162.410 66.208 M196.417 70.609 C 188.613 71.123,184.445 75.808,187.048 81.140 C 189.119 85.381,196.405 84.661,199.235 79.935 C 200.228 78.277,200.346 77.603,200.295 73.879 L 200.250 70.583 198.750 70.569 C 197.925 70.561,196.875 70.579,196.417 70.609 M105.369 76.997 C 109.446 78.523,109.587 84.375,105.585 85.999 C 103.558 86.822,100.729 86.264,99.385 84.776 C 95.774 80.779,100.179 75.053,105.369 76.997 M142.758 77.253 C 148.467 80.175,143.899 88.428,137.917 86.000 C 134.218 84.499,133.886 78.784,137.409 77.264 C 137.688 77.144,138.104 76.962,138.333 76.859 C 139.192 76.476,141.670 76.696,142.758 77.253 M108.937 88.022 C 112.466 89.342,113.074 94.382,109.954 96.459 C 106.333 98.869,101.579 96.579,101.585 92.428 C 101.591 88.836,105.250 86.643,108.937 88.022 M139.424 88.253 C 145.133 91.175,140.566 99.428,134.583 97.000 C 130.884 95.499,130.552 89.784,134.076 88.264 C 134.355 88.144,134.771 87.962,135.000 87.859 C 135.859 87.476,138.337 87.696,139.424 88.253 M118.102 95.404 C 121.444 96.934,121.731 101.888,118.589 103.830 C 115.077 106.001,110.333 103.658,110.333 99.751 C 110.333 96.036,114.450 93.732,118.102 95.404 M130.347 95.355 C 133.920 96.892,133.996 102.450,130.465 104.062 C 126.674 105.792,122.679 103.522,122.669 99.630 C 122.660 96.034,126.698 93.785,130.347 95.355 " stroke="none" fill="#fbfbfb" fill-rule="evenodd"></path><path id="path1" d="M120.333 27.237 C 117.840 27.926,116.667 29.429,116.667 31.932 C 116.667 38.231,126.588 38.557,126.970 32.271 C 127.188 28.686,123.957 26.235,120.333 27.237 M112.583 35.979 C 106.709 37.065,107.800 45.667,113.812 45.667 C 120.348 45.667,120.989 36.366,114.482 35.937 C 113.804 35.892,112.950 35.911,112.583 35.979 M128.250 35.987 C 125.382 36.549,123.607 39.510,124.544 42.167 C 126.459 47.593,134.700 46.449,134.700 40.756 C 134.700 37.362,131.877 35.275,128.250 35.987 M107.901 45.901 C 104.243 46.789,102.973 51.306,105.634 53.967 C 108.234 56.567,113.095 55.689,114.326 52.398 C 115.829 48.381,112.317 44.829,107.901 45.901 M132.583 45.854 C 129.300 46.610,127.748 50.071,129.377 53.000 C 131.364 56.570,137.657 56.144,138.878 52.356 C 140.185 48.303,136.860 44.869,132.583 45.854 M228.667 54.833 C 228.667 59.325,228.608 63.000,228.536 63.000 C 228.464 63.000,228.278 62.784,228.122 62.521 C 226.765 60.224,223.023 58.333,219.833 58.333 C 211.705 58.333,206.519 67.172,208.979 76.833 C 210.785 83.929,218.012 87.301,224.417 84.038 C 225.689 83.389,227.160 82.070,228.016 80.809 C 228.911 79.492,229.000 79.631,229.000 82.343 L 229.000 84.667 229.775 84.667 L 230.549 84.667 230.442 83.292 C 230.383 82.535,230.335 73.985,230.334 64.292 L 230.333 46.667 229.500 46.667 L 228.667 46.667 228.667 54.833 M163.917 48.266 C 163.092 48.387,162.042 48.546,161.583 48.620 L 160.750 48.754 160.708 66.683 L 160.665 84.612 162.458 84.806 C 172.469 85.891,178.410 83.155,179.767 76.833 C 180.820 71.933,178.146 67.295,173.375 65.746 C 172.243 65.378,172.282 65.198,173.634 64.546 C 179.867 61.542,179.990 52.100,173.833 49.212 C 171.536 48.135,167.465 47.746,163.917 48.266 M169.333 49.576 C 175.594 50.492,178.351 55.118,175.808 60.441 C 174.336 63.522,171.679 64.651,165.875 64.661 L 162.333 64.667 162.333 57.343 C 162.333 51.666,162.380 49.990,162.542 49.888 C 163.242 49.446,167.202 49.264,169.333 49.576 M104.160 55.643 C 99.626 56.612,98.832 63.001,103.030 64.737 C 103.426 64.900,103.880 65.102,104.039 65.184 C 104.735 65.543,106.879 65.301,108.152 64.719 C 110.876 63.473,111.530 59.196,109.332 56.998 C 108.180 55.846,105.947 55.261,104.160 55.643 M134.707 55.884 C 130.514 57.315,130.558 63.417,134.773 64.994 C 139.235 66.664,143.492 62.476,141.544 58.333 C 140.542 56.203,137.240 55.020,134.707 55.884 M191.750 58.509 C 189.826 58.921,189.303 59.087,188.042 59.688 C 186.575 60.386,186.369 60.702,186.907 61.426 C 187.117 61.711,187.191 61.723,187.513 61.526 C 194.247 57.408,200.332 60.382,200.333 67.792 L 200.333 69.000 199.027 69.000 C 192.460 69.000,187.144 71.252,185.526 74.718 C 182.329 81.569,188.518 87.487,195.833 84.574 C 197.219 84.022,200.000 81.837,200.000 81.300 C 200.000 81.227,200.103 81.167,200.228 81.167 C 200.481 81.167,200.661 81.985,200.667 83.167 C 200.674 84.510,200.774 84.667,201.620 84.667 L 202.368 84.667 202.255 83.958 C 202.192 83.569,202.081 79.313,202.007 74.500 C 201.859 64.834,201.819 64.449,200.732 62.229 C 199.319 59.339,195.419 57.724,191.750 58.509 M246.417 58.582 C 243.641 59.162,241.367 60.730,239.756 63.174 C 239.340 63.806,239.000 64.363,239.000 64.413 C 239.000 64.463,238.859 64.822,238.686 65.210 C 237.182 68.600,236.924 73.692,238.076 77.250 C 240.235 83.914,246.306 86.721,254.167 84.689 C 255.140 84.438,256.833 83.715,256.833 83.552 C 256.833 83.389,256.340 82.333,256.264 82.333 C 256.216 82.333,255.931 82.468,255.630 82.634 C 250.423 85.493,243.266 83.830,240.714 79.167 C 239.746 77.398,239.010 74.402,239.003 72.210 L 239.000 71.169 248.625 71.126 L 258.250 71.083 258.309 70.333 C 258.459 68.450,257.573 64.543,256.615 62.855 C 254.618 59.340,250.683 57.691,246.417 58.582 M273.167 58.580 C 270.886 59.085,268.259 61.058,267.458 62.869 C 267.152 63.558,266.922 63.340,266.878 62.320 C 266.856 61.823,266.793 60.869,266.738 60.199 L 266.637 58.982 265.943 59.033 C 265.280 59.081,265.250 59.107,265.259 59.625 C 265.264 59.923,265.283 65.679,265.301 72.417 L 265.333 84.667 266.167 84.667 L 267.000 84.667 267.000 76.175 C 267.000 66.731,266.997 66.767,268.125 64.521 C 270.798 59.200,277.168 58.125,280.106 62.500 C 281.587 64.705,281.667 65.386,281.667 75.760 L 281.667 84.667 282.500 84.667 L 283.333 84.667 283.335 75.792 C 283.337 68.431,283.379 66.778,283.584 66.102 C 285.712 59.087,294.229 57.449,297.114 63.500 C 298.273 65.930,298.333 66.559,298.333 76.175 L 298.333 84.667 299.167 84.667 L 300.000 84.667 299.997 76.292 C 299.993 65.869,299.798 64.373,298.111 61.833 C 294.591 56.535,285.150 57.708,282.947 63.719 C 282.784 64.163,282.590 63.959,282.021 62.744 C 280.471 59.430,276.903 57.752,273.167 58.580 M221.696 59.905 C 225.150 60.731,227.542 63.191,228.431 66.833 C 228.750 68.139,228.752 75.158,228.434 76.367 C 226.001 85.620,215.189 86.684,211.230 78.059 C 209.787 74.916,209.607 69.937,210.821 66.750 C 212.808 61.537,217.134 58.814,221.696 59.905 M250.424 59.894 C 253.825 60.800,256.024 63.911,256.430 68.390 L 256.546 69.670 247.898 69.627 L 239.250 69.583 239.307 69.000 C 239.895 62.946,245.290 58.527,250.424 59.894 M101.833 65.605 C 96.528 66.633,96.981 74.048,102.417 75.152 C 105.688 75.816,108.417 73.625,108.417 70.333 C 108.417 66.905,105.593 64.877,101.833 65.605 M137.583 65.645 C 133.305 66.769,132.705 72.757,136.684 74.616 C 140.505 76.401,144.333 74.232,144.333 70.283 C 144.333 66.870,141.177 64.700,137.583 65.645 M169.515 66.237 C 174.398 66.973,177.296 69.294,178.094 73.107 C 179.066 77.752,176.495 81.722,171.667 83.030 C 169.416 83.640,165.579 83.837,163.500 83.449 L 162.417 83.247 162.373 74.832 C 162.349 70.204,162.366 66.323,162.410 66.208 C 162.523 65.912,167.492 65.932,169.515 66.237 M200.295 73.879 C 200.366 79.057,199.198 81.470,195.856 83.048 C 190.897 85.390,186.333 83.018,186.333 78.098 C 186.333 73.309,190.976 70.494,198.750 70.569 L 200.250 70.583 200.295 73.879 M101.417 76.900 C 96.079 78.961,97.379 86.087,103.132 86.307 C 106.496 86.435,108.405 84.698,108.413 81.500 C 108.421 77.979,104.795 75.595,101.417 76.900 M138.333 76.859 C 138.104 76.962,137.688 77.144,137.409 77.264 C 133.886 78.784,134.218 84.499,137.917 86.000 C 142.849 88.002,147.455 82.671,144.347 78.558 C 143.195 77.034,139.978 76.125,138.333 76.859 M104.597 88.010 C 101.322 89.253,100.474 93.483,103.000 95.971 C 105.171 98.110,109.475 97.747,111.131 95.287 C 113.954 91.092,109.511 86.144,104.597 88.010 M135.000 87.859 C 134.771 87.962,134.355 88.144,134.076 88.264 C 130.552 89.784,130.884 95.499,134.583 97.000 C 139.515 99.002,144.122 93.671,141.014 89.558 C 139.861 88.034,136.645 87.125,135.000 87.859 M114.221 94.997 C 108.297 96.254,109.555 104.671,115.667 104.664 C 122.202 104.656,122.595 95.377,116.078 94.929 C 115.439 94.886,114.604 94.916,114.221 94.997 M126.583 94.979 C 123.771 95.500,121.951 98.540,122.878 101.167 C 124.790 106.587,133.045 105.447,133.030 99.764 C 133.021 96.380,130.224 94.304,126.583 94.979 " stroke="none" fill="#7d4f2f" fill-rule="evenodd"></path></g></svg>